<?xml version="1.0" encoding="UTF-8" standalone="no"?>
<!DOCTYPE svg PUBLIC "-//W3C//DTD SVG 1.1//EN"
 "http://www.w3.org/Graphics/SVG/1.1/DTD/svg11.dtd">
<!-- Generated by graphviz version 2.43.0 (0)
 -->
<!-- Title: sourcetree Pages: 1 -->
<svg width="496pt" height="260pt"
 viewBox="0.00 0.00 495.50 260.00" xmlns="http://www.w3.org/2000/svg" xmlns:xlink="http://www.w3.org/1999/xlink">
<g id="graph0" class="graph" transform="scale(1 1) rotate(0) translate(4 256)">
<title>sourcetree</title>
<polygon fill="white" stroke="transparent" points="-4,4 -4,-256 491.5,-256 491.5,4 -4,4"/>
<!-- mulle&#45;vm -->
<g id="node1" class="node">
<title>mulle&#45;vm</title>
<polygon fill="yellow" stroke="black" points="350,-252 267,-252 267,-216 350,-216 350,-252"/>
<text text-anchor="middle" x="308.5" y="-230.3" font-family="Times,serif" font-size="14.00">mulle&#45;vm</text>
</g>
<!-- mulle&#45;container -->
<g id="node5" class="node">
<title>mulle&#45;container</title>
<g id="a_node5"><a xlink:href="https://github.com/mulle-c/mulle-container" xlink:title="mulle&#45;container">
<polygon fill="lightgrey" stroke="black" points="237.5,-180 109.5,-180 109.5,-144 237.5,-144 237.5,-180"/>
<text text-anchor="middle" x="173.5" y="-158.3" font-family="Times,serif" font-size="14.00">mulle&#45;container</text>
</a>
</g>
</g>
<!-- mulle&#45;vm&#45;&gt;mulle&#45;container -->
<g id="edge6" class="edge">
<title>mulle&#45;vm&#45;&gt;mulle&#45;container</title>
<path fill="none" stroke="black" d="M275.48,-215.88C257.42,-206.51 234.85,-194.81 215.55,-184.8"/>
<polygon fill="black" stroke="black" points="217.14,-181.69 206.65,-180.19 213.92,-187.9 217.14,-181.69"/>
</g>
<!-- mulle&#45;mmap -->
<g id="node8" class="node">
<title>mulle&#45;mmap</title>
<g id="a_node8"><a xlink:href="https://github.com/mulle-core/mulle-mmap" xlink:title="mulle&#45;mmap">
<polygon fill="lightgrey" stroke="black" points="361,-180 256,-180 256,-144 361,-144 361,-180"/>
<text text-anchor="middle" x="308.5" y="-158.3" font-family="Times,serif" font-size="14.00">mulle&#45;mmap</text>
</a>
</g>
</g>
<!-- mulle&#45;vm&#45;&gt;mulle&#45;mmap -->
<g id="edge7" class="edge">
<title>mulle&#45;vm&#45;&gt;mulle&#45;mmap</title>
<path fill="none" stroke="black" d="M308.5,-215.7C308.5,-207.98 308.5,-198.71 308.5,-190.11"/>
<polygon fill="black" stroke="black" points="312,-190.1 308.5,-180.1 305,-190.1 312,-190.1"/>
</g>
<!-- mulle&#45;thread -->
<g id="node9" class="node">
<title>mulle&#45;thread</title>
<g id="a_node9"><a xlink:href="https://github.com/mulle-concurrent/mulle-thread" xlink:title="mulle&#45;thread">
<polygon fill="lightgrey" stroke="black" points="487.5,-180 379.5,-180 379.5,-144 487.5,-144 487.5,-180"/>
<text text-anchor="middle" x="433.5" y="-158.3" font-family="Times,serif" font-size="14.00">mulle&#45;thread</text>
</a>
</g>
</g>
<!-- mulle&#45;vm&#45;&gt;mulle&#45;thread -->
<g id="edge8" class="edge">
<title>mulle&#45;vm&#45;&gt;mulle&#45;thread</title>
<path fill="none" stroke="black" d="M339.08,-215.88C355.57,-206.64 376.12,-195.13 393.84,-185.21"/>
<polygon fill="black" stroke="black" points="395.79,-188.13 402.8,-180.19 392.37,-182.02 395.79,-188.13"/>
</g>
<!-- mintomic -->
<g id="node2" class="node">
<title>mintomic</title>
<g id="a_node2"><a xlink:href="https://github.com/mulle-concurrent/mintomic" xlink:title="mintomic">
<polygon fill="lightgrey" stroke="black" points="475,-108 392,-108 392,-72 475,-72 475,-108"/>
<text text-anchor="middle" x="433.5" y="-86.3" font-family="Times,serif" font-size="14.00">mintomic</text>
</a>
</g>
</g>
<!-- mulle&#45;allocator -->
<g id="node3" class="node">
<title>mulle&#45;allocator</title>
<g id="a_node3"><a xlink:href="https://github.com/mulle-c/mulle-allocator" xlink:title="mulle&#45;allocator">
<polygon fill="lightgrey" stroke="black" points="123,-108 0,-108 0,-72 123,-72 123,-108"/>
<text text-anchor="middle" x="61.5" y="-86.3" font-family="Times,serif" font-size="14.00">mulle&#45;allocator</text>
</a>
</g>
</g>
<!-- mulle&#45;c11 -->
<g id="node4" class="node">
<title>mulle&#45;c11</title>
<g id="a_node4"><a xlink:href="https://github.com/mulle-c/mulle-c11" xlink:title="mulle&#45;c11">
<polygon fill="lightgrey" stroke="black" points="351.5,-108 265.5,-108 265.5,-72 351.5,-72 351.5,-108"/>
<text text-anchor="middle" x="308.5" y="-86.3" font-family="Times,serif" font-size="14.00">mulle&#45;c11</text>
</a>
</g>
</g>
<!-- mulle&#45;container&#45;&gt;mulle&#45;allocator -->
<g id="edge1" class="edge">
<title>mulle&#45;container&#45;&gt;mulle&#45;allocator</title>
<path fill="none" stroke="black" d="M146.1,-143.88C131.59,-134.81 113.58,-123.55 97.91,-113.76"/>
<polygon fill="black" stroke="black" points="99.34,-110.52 89,-108.19 95.63,-116.46 99.34,-110.52"/>
</g>
<!-- mulle&#45;data -->
<g id="node6" class="node">
<title>mulle&#45;data</title>
<g id="a_node6"><a xlink:href="https://github.com/mulle-c/mulle-data" xlink:title="mulle&#45;data">
<polygon fill="lightgrey" stroke="black" points="233.5,-108 141.5,-108 141.5,-72 233.5,-72 233.5,-108"/>
<text text-anchor="middle" x="187.5" y="-86.3" font-family="Times,serif" font-size="14.00">mulle&#45;data</text>
</a>
</g>
</g>
<!-- mulle&#45;container&#45;&gt;mulle&#45;data -->
<g id="edge2" class="edge">
<title>mulle&#45;container&#45;&gt;mulle&#45;data</title>
<path fill="none" stroke="black" d="M176.96,-143.7C178.5,-135.98 180.36,-126.71 182.08,-118.11"/>
<polygon fill="black" stroke="black" points="185.55,-118.6 184.08,-108.1 178.69,-117.22 185.55,-118.6"/>
</g>
<!-- xxhash.h -->
<g id="node7" class="node">
<title>xxhash.h</title>
<g id="a_node7"><a xlink:href="https://raw.githubusercontent.com/mulle-c/xxHash" xlink:title="xxhash.h">
<polygon fill="lightgrey" stroke="black" points="227.5,-36 147.5,-36 147.5,0 227.5,0 227.5,-36"/>
<text text-anchor="middle" x="187.5" y="-14.3" font-family="Times,serif" font-size="14.00">xxhash.h</text>
</a>
</g>
</g>
<!-- mulle&#45;data&#45;&gt;xxhash.h -->
<g id="edge3" class="edge">
<title>mulle&#45;data&#45;&gt;xxhash.h</title>
<path fill="none" stroke="black" d="M187.5,-71.7C187.5,-63.98 187.5,-54.71 187.5,-46.11"/>
<polygon fill="black" stroke="black" points="191,-46.1 187.5,-36.1 184,-46.1 191,-46.1"/>
</g>
<!-- mulle&#45;mmap&#45;&gt;mulle&#45;c11 -->
<g id="edge4" class="edge">
<title>mulle&#45;mmap&#45;&gt;mulle&#45;c11</title>
<path fill="none" stroke="black" d="M308.5,-143.7C308.5,-135.98 308.5,-126.71 308.5,-118.11"/>
<polygon fill="black" stroke="black" points="312,-118.1 308.5,-108.1 305,-118.1 312,-118.1"/>
</g>
<!-- mulle&#45;thread&#45;&gt;mintomic -->
<g id="edge5" class="edge">
<title>mulle&#45;thread&#45;&gt;mintomic</title>
<path fill="none" stroke="black" d="M433.5,-143.7C433.5,-135.98 433.5,-126.71 433.5,-118.11"/>
<polygon fill="black" stroke="black" points="437,-118.1 433.5,-108.1 430,-118.1 437,-118.1"/>
</g>
</g>
</svg>
